 -------------------- SOLO GIRL 4 ---------------------

Video
Format                           : H.263 ---- Flash Video
Duration                         : 2mn 13s
Bit rate                         : 815 Kbps
Width                            : 480 pixels
Height                           : 380 pixels
Display aspect ratio             : 5/4
Frame rate                       : 23.000 fps
Bits/(Pixel*Frame)               : 0.194
Stream size                      : 12.9 MiB (94%)

Audio
Format                           : MPEG Audio
Format version                   : Version 2
Format profile                   : Layer 3
Duration                         : 2mn 13s
Bit rate mode                    : Variable
Bit rate                         : 47.2 Kbps
Channel(s)                       : 2 channels
Sampling rate                    : 22.05 KHz
Resolution                       : 16 bits
Stream size                      : 821 KiB (6%)